HIERARCHY
ROOT SimulationBone
{
	OFFSET 0.000000 0.000000 0.000000
	CHANNELS 6 Xposition Yposition Zposition Zrotation Yrotation Xrotation 
	JOINT Hips
	{
		OFFSET 0.000000 0.000000 0.000000
		CHANNELS 6 Xposition Yposition Zposition Zrotation Yrotation Xrotation 
		JOINT LeftUpLeg
		{
			OFFSET 0.103458 1.857826 10.548496
			CHANNELS 3 Zrotation Yrotation Xrotation
			JOINT LeftLeg
			{
				OFFSET 43.500000 -0.000027 -0.000004
				CHANNELS 3 Zrotation Yrotation Xrotation
				JOINT LeftFoot
				{
					OFFSET 42.372200 0.000015 -0.000005
					CHANNELS 3 Zrotation Yrotation Xrotation
					JOINT LeftToe
					{
						OFFSET 17.299997 -0.000002 0.000005
						CHANNELS 3 Zrotation Yrotation Xrotation
						End Site
						{
							OFFSET 0.000000 0.000000 0.000000
						}
					}
				}
			}
		}
		JOINT RightUpLeg
		{
			OFFSET 0.103458 1.857826 -10.548510
			CHANNELS 3 Zrotation Yrotation Xrotation
			JOINT RightLeg
			{
				OFFSET 43.500046 -0.000015 0.000000
				CHANNELS 3 Zrotation Yrotation Xrotation
				JOINT RightFoot
				{
					OFFSET 42.372261 -0.000011 0.000021
					CHANNELS 3 Zrotation Yrotation Xrotation
					JOINT RightToe
					{
						OFFSET 17.299997 -0.000004 0.000000
						CHANNELS 3 Zrotation Yrotation Xrotation
						End Site
						{
							OFFSET 0.000000 0.000000 0.000000
						}
					}
				}
			}
		}
		JOINT Spine
		{
			OFFSET 6.901967 -2.603728 0.000002
			CHANNELS 3 Zrotation Yrotation Xrotation
			JOINT Spine1
			{
				OFFSET 12.588098 -0.000006 -0.000001
				CHANNELS 3 Zrotation Yrotation Xrotation
				JOINT Spine2
				{
					OFFSET 12.343200 0.000006 -0.000002
					CHANNELS 3 Zrotation Yrotation Xrotation
					JOINT Neck
					{
						OFFSET 25.832905 -0.000006 -0.000005
						CHANNELS 3 Zrotation Yrotation Xrotation
						JOINT Head
						{
							OFFSET 11.766604 0.000006 0.000006
							CHANNELS 3 Zrotation Yrotation Xrotation
							End Site
							{
								OFFSET 0.000000 0.000000 0.000000
							}
						}
					}
					JOINT LeftShoulder
					{
						OFFSET 19.745914 -1.480366 6.000100
						CHANNELS 3 Zrotation Yrotation Xrotation
						JOINT LeftArm
						{
							OFFSET 11.284136 -0.000006 -0.000022
							CHANNELS 3 Zrotation Yrotation Xrotation
							JOINT LeftForeArm
							{
								OFFSET 33.000057 0.000006 0.000029
								CHANNELS 3 Zrotation Yrotation Xrotation
								JOINT LeftHand
								{
									OFFSET 25.199999 0.000011 -0.000002
									CHANNELS 3 Zrotation Yrotation Xrotation
									End Site
									{
										OFFSET 0.000000 0.000000 0.000000
									}
								}
							}
						}
					}
					JOINT RightShoulder
					{
						OFFSET 19.746107 -1.480371 -6.000078
						CHANNELS 3 Zrotation Yrotation Xrotation
						JOINT RightArm
						{
							OFFSET 11.284137 -0.000012 0.000000
							CHANNELS 3 Zrotation Yrotation Xrotation
							JOINT RightForeArm
							{
								OFFSET 33.000088 0.000017 0.000001
								CHANNELS 3 Zrotation Yrotation Xrotation
								JOINT RightHand
								{
									OFFSET 25.199789 0.000135 0.000430
									CHANNELS 3 Zrotation Yrotation Xrotation
									End Site
									{
										OFFSET 0.000000 0.000000 0.000000
									}
								}
							}
						}
					}
				}
			}
		}
	}
}
MOTION
Frames: 10
Frame Time: 0.033333
225.576647 0.000000 -97.714502 0.000000 96.685109 0.000000 1.105511 91.378906 1.598822 97.318746 4.368117 176.323196 -173.024606 -12.353203 177.176214 -15.654638 -4.194870 -12.129073 79.260138 6.030734 -11.019174 21.454560 0.003117 0.000017 -173.135788 -2.628812 178.419308 -12.431732 1.807731 7.695834 76.120116 -4.848000 2.395021 21.454553 -0.003084 0.000001 8.322011 1.109664 -0.216653 6.628829 2.229905 -0.369652 6.310483 2.227485 -0.383123 -2.297885 9.030430 8.776022 -15.931199 -11.947317 14.980152 -167.037412 -70.517906 -14.718274 -14.233552 41.834711 28.491145 -28.243990 -16.686649 1.330435 3.178868 15.196959 13.404550 -166.425195 74.712270 15.371218 -12.257300 -50.123056 -11.729463 -23.105565 15.497308 -1.145364 8.909131 -19.347426 -30.157751 
226.487262 0.000000 -97.671826 0.000000 95.747035 0.000000 1.465091 91.233910 1.399177 97.407674 4.439853 177.119784 -173.680277 -12.980504 177.076261 -17.404041 -3.982833 -11.989910 79.686116 5.791150 -11.757161 21.454560 0.003100 0.000017 -173.363561 -3.154102 178.006478 -13.256107 2.136117 7.855694 76.818052 -5.095336 1.917992 21.454557 -0.003089 0.000001 8.405538 1.216705 -0.272767 6.794722 2.447280 -0.473927 6.476315 2.444241 -0.488705 -2.283309 9.060532 8.960982 -16.101843 -12.161289 15.272269 -165.545002 -70.129562 -16.258951 -13.078240 45.404338 27.782636 -27.520219 -16.438589 1.301550 3.427063 14.606204 12.988223 -166.403489 73.665947 15.398115 -13.088183 -53.162713 -6.134727 -19.460490 13.575049 -0.976555 11.514351 -20.195295 -27.896637 
227.340974 0.000000 -97.709804 0.000000 94.817833 0.000000 1.691910 91.028320 1.241318 97.495040 4.613986 177.919912 -174.956061 -13.653790 176.666804 -20.269206 -3.359757 -11.573926 80.149859 5.283870 -12.796000 21.454557 0.003111 0.000015 -173.734030 -3.764610 177.680022 -14.321191 2.506606 7.962273 77.623187 -5.304669 1.413111 21.454551 -0.003096 -0.000001 8.503570 1.373090 -0.292222 6.990271 2.761324 -0.501316 6.671774 2.758113 -0.518009 -2.227817 8.800717 9.159786 -16.235216 -12.217089 15.457773 -163.961314 -70.020791 -17.893310 -12.360751 48.818490 26.446552 -26.076423 -16.043377 1.251513 3.328851 12.893619 10.844909 -165.288297 73.319478 16.544195 -12.244122 -56.171360 -4.219919 -19.890489 13.549886 -0.979908 16.404250 -19.664489 -31.938429 
228.140184 0.000000 -97.828433 0.000000 93.899606 0.000000 1.785411 90.722160 1.101082 97.556533 4.857465 178.819876 -177.371065 -14.192399 176.648062 -24.979732 -2.136494 -11.209403 80.378042 4.741227 -14.009170 21.454558 0.003113 0.000017 -174.371888 -4.390111 177.668424 -15.836154 2.951957 7.940449 78.655700 -5.422098 0.872516 21.454548 -0.003083 0.000000 8.602283 1.546396 -0.279738 7.188079 3.107134 -0.463225 6.869480 3.104156 -0.482013 -2.091905 8.730221 9.263986 -16.399960 -12.237772 15.571423 -163.393411 -70.006318 -18.479306 -11.645876 51.496262 25.150042 -24.679736 -15.633673 1.202917 3.499975 10.792778 8.523983 -163.576515 73.155267 18.302484 -11.006346 -58.271841 -8.984083 -21.158948 14.520480 -1.057075 16.498167 -17.504793 -33.492861 
228.887293 0.000000 -98.027708 0.000000 92.994433 0.000000 1.797196 90.380966 1.002454 97.691367 4.939678 179.774181 179.347968 -14.529808 178.146715 -31.068481 -1.393988 -11.586770 79.315524 4.677543 -14.828817 21.454557 0.003104 0.000018 -175.015592 -4.809998 177.729814 -17.513464 3.505790 7.912988 79.808896 -5.534111 0.293457 21.454550 -0.003104 -0.000002 8.711619 1.672855 -0.286158 7.406730 3.360595 -0.465046 7.088049 3.357581 -0.485367 -1.831150 9.262782 9.365135 -16.503306 -12.585459 15.900586 -163.803495 -69.951977 -18.056753 -10.599292 53.458094 23.935309 -24.114220 -15.888670 1.210386 4.365737 8.549393 8.678361 -161.924825 73.251224 19.996786 -10.513159 -60.032739 -13.294915 -21.725795 15.101528 -1.101287 14.279900 -14.568529 -34.426739 
229.584700 0.000000 -98.307625 0.000000 92.104351 0.000000 1.778715 90.006416 0.933039 97.917120 5.095155 -179.326515 175.800627 -14.843593 179.566657 -37.585944 -0.812476 -12.141990 77.339919 4.891189 -14.589626 21.454558 0.003112 0.000017 -175.437029 -5.340186 177.473067 -18.974622 4.040054 8.045460 80.901624 -5.728589 -0.219512 21.454550 -0.003086 0.000001 8.825352 1.796286 -0.310492 7.633679 3.609119 -0.502216 7.314923 3.605876 -0.524035 -1.375239 9.862599 9.479461 -16.547178 -12.678960 16.139739 -163.630200 -69.855896 -18.236427 -9.830067 54.746883 23.407758 -23.810475 -15.897083 1.205127 4.932332 5.406202 9.273005 -161.544602 73.373710 20.385499 -10.070854 -61.514842 -14.805996 -22.419030 15.346368 -1.126161 11.723721 -11.238089 -32.684033 
230.234806 0.000000 -98.668178 0.000000 91.231355 0.000000 1.753618 89.751717 0.861471 98.232393 5.017751 -178.585167 172.296658 -14.688602 -179.856721 -43.925940 0.108587 -12.749048 74.714469 5.489397 -12.866978 21.454553 0.003101 0.000016 -175.458885 -5.645402 177.292136 -19.911337 4.408275 8.062859 81.692430 -5.831986 -0.699078 21.454550 -0.003090 0.000001 8.942755 1.873528 -0.325302 7.868301 3.764796 -0.522856 7.549469 3.761429 -0.545627 -0.872673 10.108554 9.611310 -16.602028 -12.331955 16.165371 -163.104398 -69.742071 -18.780071 -9.944933 55.690320 23.262443 -23.148969 -15.948768 1.199868 5.058373 2.503025 9.567615 -161.567811 73.388914 20.361526 -10.490560 -62.625608 -14.264395 -22.666821 15.347129 -1.129637 9.543594 -7.583236 -27.989400 
230.840012 0.000000 -99.109365 0.000000 90.377439 0.000000 1.767397 89.603531 0.816848 98.561233 4.801530 -178.118147 169.193075 -14.231211 -179.232128 -49.484396 0.344838 -14.360430 71.899858 7.405127 -9.478682 21.454560 0.003113 0.000018 -175.114043 -5.814613 177.047601 -20.315124 4.639944 7.979394 82.233470 -5.867363 -1.184576 21.454553 -0.003081 0.000001 9.044347 1.918088 -0.294499 8.072750 3.851993 -0.454817 7.753888 3.849041 -0.478119 -0.453832 10.256630 9.757537 -16.597153 -12.289518 16.294164 -162.486498 -69.727796 -19.417796 -10.269431 56.833464 22.000128 -22.862475 -16.132299 1.207362 5.664223 -0.681540 9.437203 -161.653939 73.290676 20.274407 -11.629563 -63.179639 -13.183110 -23.037530 15.567784 -1.148858 8.561377 -4.429288 -22.213568 
231.402717 0.000000 -99.631180 0.000000 89.544091 0.000000 1.782237 89.508591 0.749023 98.850280 4.551261 -177.953483 166.825226 -13.661894 -179.377160 -53.571923 0.490023 -15.720044 70.179244 8.781481 -7.896166 21.454551 0.003104 0.000020 -174.611915 -5.902886 176.877680 -20.472056 4.697727 7.701481 82.639401 -5.762915 -1.646588 21.454553 -0.003101 -0.000001 9.119165 1.954213 -0.224447 8.224974 3.919408 -0.309690 7.906081 3.917318 -0.333394 -0.175925 10.169096 9.909898 -16.428902 -12.415960 16.435146 -161.952186 -69.705748 -19.969426 -10.494735 58.115040 20.348600 -22.823518 -16.520768 1.231370 6.152950 -3.508871 7.752324 -161.898201 73.231943 20.024402 -13.085897 -63.264614 -12.029727 -23.851137 16.088560 -1.193752 8.281238 -1.161012 -18.113433 
231.925322 0.000000 -100.233620 0.000000 88.733711 0.000000 1.797376 89.496384 0.631518 99.047147 4.165890 -178.035618 165.073651 -13.001103 179.782190 -55.918291 0.496074 -15.200253 71.169396 8.428813 -7.966122 21.454562 0.003107 0.000017 -173.987881 -5.738996 176.733522 -20.348672 4.710304 7.282619 82.912848 -5.565693 -2.105698 21.454553 -0.003091 0.000002 9.153084 1.957119 -0.163311 8.294990 3.920865 -0.186063 7.976087 3.919556 -0.209785 0.178932 10.175285 10.153841 -16.329632 -12.732244 16.758255 -161.211712 -69.667404 -20.734030 -10.570458 59.337856 18.975392 -23.338973 -16.941801 1.265441 6.956446 -5.717733 5.343860 -162.779404 73.108753 19.121181 -14.848715 -62.727802 -10.484556 -24.904729 16.372243 -1.227880 8.417592 2.051039 -15.739153 
